<svg width="204" height="79" viewBox="0 0 204 79" fill="none" xmlns="http://www.w3.org/2000/svg">
<path fill-rule="evenodd" clip-rule="evenodd" d="M113.725 2.27075C117.014 2.27075 118.365 5.36723 118.365 6.1612C116.479 6.1612 113.834 12.97 106.565 31.6772L106.509 31.8223C99.2137 50.5917 94.9383 59.1507 91.696 59.1507C86.7849 59.1507 84.4167 46.1614 84.4326 30.5202C84.4326 24.0096 87.6908 5.0814 92.0616 0.762209C92.5225 0.301707 94.7317 0 95.431 0C97.0045 0 97.7356 0.396985 97.7356 0.396985C97.7356 0.396985 89.9795 13.4022 89.9795 39.6032C89.9795 44.367 90.5358 53.2436 91.8867 53.2436C94.0793 53.2436 97.9795 41.4662 102.03 29.2337C106.407 16.0179 110.959 2.27075 113.725 2.27075ZM41.2974 5.71659C43.1093 8.14613 40.9955 10.4645 40.9955 10.4645C39.724 9.17829 32.0315 10.9409 23.7509 13.4022C23.4436 15.6496 22.4899 19.844 20.7796 27.3662L20.7795 27.3663C20.2783 29.5706 19.7122 32.0606 19.0782 34.8712C17.7114 40.953 14.8982 52.4655 14.8982 52.4655C14.8982 52.4655 14.1512 53.1801 12.4029 52.7196C11.9678 52.6063 11.5752 52.3687 11.2732 52.0359C10.9711 51.7031 10.7728 51.2895 10.7023 50.8458C15.5658 31.5682 17.2823 19.1347 17.7432 15.276C10.6864 17.5626 4.20185 19.9445 2.02443 20.9449C2.02443 20.9449 0.816513 20.7544 0.260238 19.7699C-0.296037 18.7853 0.212558 17.7849 0.212558 17.7849C3.23234 15.6571 38.8022 2.36603 41.2974 5.71659ZM72.872 39.0816C73.0934 38.7762 73.2305 38.5869 73.8316 38.5869C74.4197 38.5869 74.4038 39.2697 74.4038 39.2697C74.4038 40.7942 65.8054 53.1007 56.3487 53.1007C55.1884 53.1007 52.0415 52.5449 50.0707 50.0201C46.7172 51.9415 43.4272 53.1642 40.8206 53.1642C40.2644 53.1642 37.0221 52.8466 37.0221 48.6703C37.0221 46.7298 37.8468 44.06 38.6498 41.4606C40.0283 36.9981 41.3426 32.7433 38.3095 32.7433C34.5586 32.7433 30.013 39.9049 30.013 39.9049C30.013 39.9049 27.5495 49.512 27.2157 52.4655C27.2157 52.4655 26.8343 52.9578 25.4992 52.9578C23.0357 52.9578 22.6702 50.8935 22.6702 50.8935C22.6702 50.8935 30.1561 23.8032 30.1561 17.4673C30.1561 15.673 29.8859 15.403 29.8859 15.403C29.8859 15.403 32.4447 14.1962 34.1453 14.1962C35.846 14.1962 35.8777 15.4348 35.8777 16.5622C35.8777 20.2621 31.3958 34.887 31.3958 34.887C31.3958 34.887 35.7029 28.2971 41.2021 28.2971C45.7635 28.2971 45.1755 33.4896 45.1755 33.4896C45.1755 36.4311 43.6089 40.3881 42.3975 43.4479L42.3975 43.448C41.6339 45.3768 41.0114 46.9491 41.0114 47.6858C41.0114 48.9879 42.108 49.242 42.553 49.242C44.1424 49.242 46.3357 48.4322 48.6721 47.1618C48.4854 46.3495 48.3947 45.5181 48.4019 44.6846C48.4019 35.9351 56.3646 28.4718 61.7684 28.4718C65.9166 28.4718 65.9484 31.6318 65.9484 31.8223C65.9484 36.3956 60.3697 42.8744 53.9964 47.4953C54.664 48.6227 55.9036 49.6707 58.383 49.6707C63.8179 49.6707 71.7578 40.4093 72.5853 39.444L72.6396 39.3809C72.7338 39.2722 72.8066 39.1718 72.872 39.0816ZM61.5777 33.2514C61.5777 32.0287 61.085 31.6318 60.3856 31.6318C57.4771 31.6318 53.5037 37.3007 53.2812 44.1288C57.7314 40.7624 61.5777 36.3956 61.5777 33.2514ZM201.505 32.6163C200.07 32.6139 198.683 33.1267 197.595 34.0613C197.595 34.0613 198.453 34.9823 198.453 37.0625C198.453 41.2229 192.112 50.7823 188.647 50.7823C187.836 50.7823 186.358 50.5123 186.358 47.6064C186.358 45.285 187.435 42.3417 188.496 39.4431C189.525 36.6314 190.538 33.8618 190.538 31.7429C190.538 30.5678 189.728 29.8374 187.741 29.8374C186.52 29.8513 185.328 30.2151 184.308 30.8854C184.308 30.8854 184.88 31.3459 184.88 32.4416C184.88 35.3952 183.958 38.5234 183.068 41.3817C182.274 43.9383 176.901 50.7029 171.021 50.7029C167.81 50.7029 166.539 49.0356 166.014 47.5747C173.214 42.8744 178.952 36.5385 178.952 31.9493C178.952 31.7429 178.92 28.4241 174.565 28.4241C168.891 28.4241 160.531 36.2527 160.531 45.4309C160.515 53.1801 167.047 54.3393 168.875 54.3393C173.675 54.3393 178.094 51.7033 181.511 48.6703C181.685 52.4179 183.64 55.038 187.963 55.038C192.509 55.038 195.735 49.2102 195.735 49.2102L188.329 76.4116C188.329 76.4116 189.219 79 191.969 79C193.494 79 193.717 77.2215 193.717 77.2215C197.18 60.3083 200.981 46.3518 202.842 39.5163C203.569 36.8472 204 35.2638 204 35.0141C204 34.1248 203.921 32.6163 201.505 32.6163ZM173.119 31.7906C173.85 31.7906 174.374 32.2034 174.374 33.4896C174.374 36.5702 170.639 40.6671 165.728 44.0018C166.253 37.2531 170.194 31.7906 173.119 31.7906ZM150.629 14.3089C150.629 14.3089 151.821 10.7361 149.04 10.7361C147.405 10.7244 145.793 11.1229 144.351 11.8952C144.351 11.8952 145.051 13.9278 143.239 21.3117C142.781 23.1713 142.082 26.0332 141.29 29.2747L141.288 29.2821L141.265 29.3762C140.746 31.5036 140.187 33.791 139.631 36.0637C136.993 44.972 131.764 49.2594 130.095 49.2594C128.188 49.2594 130.127 41.7803 130.127 41.7803L132.225 33.523L133.512 28.4733C133.512 28.4733 132.352 26.6631 131.033 26.6631C129.713 26.6631 129.364 27.1395 129.364 27.1395L128.728 29.6325L128.726 29.63C128.651 29.55 126.888 27.6635 123.483 27.6635C117.428 27.6952 109.386 38.128 109.386 45.9407C109.386 52.6735 113.121 54.1027 114.773 54.1027C117.301 54.1027 121.481 52.61 125.374 47.8938C125.454 50.6251 126.137 52.6735 128.045 52.6735C131.207 52.6735 134.18 50.6092 136.738 47.9097C136.134 50.371 135.753 51.9589 135.753 51.9589C135.753 51.9589 136.341 54.0709 138.248 54.0709C139.71 54.0709 140.235 53.5628 140.235 53.5628L145.194 34.8711L145.21 34.8235H145.194L150.629 14.3089ZM127.218 35.6016C127.043 36.2844 126.837 37.126 126.63 38.047C124.5 46.5901 119.637 49.0832 117.618 49.0832C117.618 49.0832 115.155 49.242 115.155 44.7005C115.139 38.444 120.924 30.8695 124.564 30.8695C125.854 30.8571 127.106 31.3079 128.092 32.1399L127.218 35.6016ZM155.842 14.3391C155.842 14.3391 158.099 13.2434 160.722 13.2434C163.344 13.2434 162.216 16.6098 162.216 16.6098L152.425 53.593C151.685 53.8841 150.9 54.0452 150.105 54.0693C148.309 54.0693 147.753 52.0844 147.753 52.0844C147.753 52.0844 153.125 30.1867 154.809 23.2157C156.494 16.2446 155.842 14.3391 155.842 14.3391Z" fill="#FDFAF6"/>
</svg>
